<svg width="117" height="23" viewBox="0 0 117 23" fill="none" xmlns="http://www.w3.org/2000/svg">
<path d="M46.424 13.312L47.544 14.256C47.0427 14.8533 46.4293 15.3227 45.704 15.664C44.9893 15.9947 44.2107 16.16 43.368 16.16C41.8107 16.16 40.488 15.6107 39.4 14.512C38.3227 13.4133 37.784 12.08 37.784 10.512C37.784 8.944 38.3227 7.61067 39.4 6.512C40.488 5.40267 41.8107 4.848 43.368 4.848C44.2 4.848 44.9733 5.01333 45.688 5.344C46.4027 5.67467 47.0107 6.13333 47.512 6.72L46.392 7.648C45.56 6.74133 44.552 6.288 43.368 6.288C42.216 6.288 41.2453 6.69867 40.456 7.52C39.6667 8.34133 39.272 9.33867 39.272 10.512C39.272 11.6853 39.6667 12.6827 40.456 13.504C41.2453 14.3147 42.216 14.72 43.368 14.72C44.6053 14.72 45.624 14.2507 46.424 13.312ZM55.3139 15.072C54.5565 15.7973 53.6339 16.16 52.5459 16.16C51.4579 16.16 50.5352 15.7973 49.7779 15.072C49.0205 14.3467 48.6419 13.4027 48.6419 12.24C48.6419 11.088 49.0152 10.1547 49.7619 9.44C50.5192 8.72533 51.4472 8.368 52.5459 8.368C53.6445 8.368 54.5725 8.72533 55.3299 9.44C56.0872 10.1547 56.4659 11.088 56.4659 12.24C56.4659 13.392 56.0819 14.336 55.3139 15.072ZM50.7859 14.064C51.2659 14.5227 51.8525 14.752 52.5459 14.752C53.2392 14.752 53.8205 14.5227 54.2899 14.064C54.7699 13.5947 55.0099 12.9867 55.0099 12.24C55.0099 11.504 54.7699 10.912 54.2899 10.464C53.8205 10.016 53.2392 9.792 52.5459 9.792C51.8525 9.792 51.2659 10.016 50.7859 10.464C50.3165 10.912 50.0819 11.504 50.0819 12.24C50.0819 12.9867 50.3165 13.5947 50.7859 14.064ZM59.8595 11.968V16H58.4035V8.528H59.8595V9.648C60.0728 9.232 60.3982 8.91733 60.8355 8.704C61.2835 8.48 61.7368 8.368 62.1955 8.368C63.1235 8.368 63.8328 8.656 64.3235 9.232C64.8248 9.808 65.0755 10.624 65.0755 11.68V16H63.6195V11.776C63.6195 11.1573 63.4702 10.672 63.1715 10.32C62.8835 9.968 62.4835 9.792 61.9715 9.792C61.3848 9.792 60.8835 9.97333 60.4675 10.336C60.0622 10.688 59.8595 11.232 59.8595 11.968ZM69.4351 8.528H71.0191V9.76H69.4351V16H67.9791V9.76H66.6351V8.528H67.9791V5.712H69.4351V8.528ZM78.4798 16V14.848C78.2344 15.264 77.8718 15.5893 77.3918 15.824C76.9118 16.048 76.3998 16.16 75.8558 16.16C74.7998 16.16 73.9038 15.7973 73.1678 15.072C72.4318 14.3467 72.0638 13.408 72.0638 12.256C72.0638 11.0933 72.4318 10.1547 73.1678 9.44C73.9038 8.72533 74.7998 8.368 75.8558 8.368C76.3998 8.368 76.9118 8.48 77.3918 8.704C77.8824 8.928 78.2451 9.24267 78.4798 9.648V8.528H79.9198V16H78.4798ZM78.4638 12.24C78.4638 11.4827 78.2131 10.8853 77.7118 10.448C77.2104 10.0107 76.6344 9.792 75.9838 9.792C75.2904 9.792 74.7091 10.0213 74.2398 10.48C73.7811 10.928 73.5518 11.5147 73.5518 12.24C73.5518 12.9653 73.7864 13.5627 74.2558 14.032C74.7251 14.5013 75.3011 14.736 75.9838 14.736C76.6771 14.736 77.2638 14.512 77.7438 14.064C78.2238 13.616 78.4638 13.008 78.4638 12.24ZM83.0126 15.072C82.2446 14.336 81.8606 13.392 81.8606 12.24C81.8606 11.088 82.2446 10.1547 83.0126 9.44C83.7806 8.72533 84.714 8.368 85.8126 8.368C86.9966 8.368 87.9566 8.768 88.6926 9.568L87.5886 10.496C87.1193 10.0267 86.5273 9.792 85.8126 9.792C85.1193 9.792 84.5273 10.0213 84.0366 10.48C83.546 10.928 83.3006 11.5147 83.3006 12.24C83.3006 12.976 83.546 13.5787 84.0366 14.048C84.5273 14.5173 85.1193 14.752 85.8126 14.752C86.5273 14.752 87.1193 14.5067 87.5886 14.016L88.7086 14.944C87.962 15.7547 86.9966 16.16 85.8126 16.16C84.714 16.16 83.7806 15.7973 83.0126 15.072ZM92.5601 8.528H94.1441V9.76H92.5601V16H91.1041V9.76H89.7601V8.528H91.1041V5.712H92.5601V8.528ZM102.07 14.016C102.56 14.4853 103.158 14.72 103.862 14.72C104.566 14.72 105.163 14.4853 105.654 14.016C106.144 13.5467 106.39 12.944 106.39 12.208V4.976H107.894V12.208C107.894 13.3813 107.499 14.336 106.71 15.072C105.931 15.7973 104.982 16.16 103.862 16.16C102.742 16.16 101.787 15.7973 100.998 15.072C100.219 14.336 99.8295 13.3813 99.8295 12.208V4.976H101.334V12.208C101.334 12.944 101.579 13.5467 102.07 14.016ZM112.037 12.704C111.322 12.512 110.794 12.224 110.453 11.84C110.112 11.456 109.973 10.9333 110.037 10.272C110.09 9.728 110.368 9.27467 110.869 8.912C111.37 8.54933 111.957 8.368 112.629 8.368C113.322 8.368 113.909 8.544 114.389 8.896C114.88 9.23733 115.157 9.76533 115.221 10.48H113.829C113.786 10.2133 113.653 10.0053 113.429 9.856C113.216 9.70667 112.96 9.632 112.661 9.632C112.384 9.632 112.138 9.696 111.925 9.824C111.722 9.94133 111.594 10.1013 111.541 10.304C111.477 10.5387 111.482 10.736 111.557 10.896C111.674 11.1413 111.968 11.3333 112.437 11.472L113.541 11.744C114.832 12.064 115.477 12.7893 115.477 13.92C115.477 14.592 115.194 15.136 114.629 15.552C114.074 15.9573 113.392 16.16 112.581 16.16C111.866 16.16 111.226 15.9413 110.661 15.504C110.106 15.0667 109.818 14.4853 109.797 13.76H111.125C111.189 14.1547 111.392 14.4373 111.733 14.608C112.064 14.8107 112.458 14.896 112.917 14.864C113.258 14.8427 113.53 14.7413 113.733 14.56C113.936 14.3787 114.042 14.1547 114.053 13.888C114.064 13.632 113.978 13.4293 113.797 13.28C113.616 13.1307 113.37 13.0187 113.061 12.944L112.037 12.704Z" fill="black"/>
<path opacity="0.4" d="M21.0828 7.71725V15.2827C21.0873 16.5639 20.5816 17.7943 19.6772 18.7027C18.7727 19.611 17.5438 20.1227 16.2614 20.125H6.76344C5.47874 20.1272 4.24588 19.619 3.33665 18.7122C2.42743 17.8055 1.9165 16.5747 1.9165 15.2912V7.71725C1.9172 7.15363 2.01815 6.59462 2.21465 6.06629C2.90701 4.15175 4.72581 2.87574 6.76344 2.875H16.2358C18.2983 2.87385 20.1348 4.17898 20.8102 6.12586C20.9976 6.63524 21.09 7.17461 21.0828 7.71725Z" fill="#9796A1"/>
<path d="M20.8104 6.13437L20.7167 6.21096C18.9534 7.58109 13.2461 12.168 13.2461 12.168C12.2537 12.9743 10.8312 12.9743 9.83876 12.168C9.83876 12.168 4.16554 7.5896 2.40225 6.21947L2.21484 6.0748C2.90436 4.1569 4.72381 2.87703 6.76364 2.875H16.236C18.3007 2.8751 20.1379 4.18413 20.8104 6.13437Z" fill="#9796A1"/>
</svg>
